<svg xmlns="http://www.w3.org/2000/svg" xmlns:xlink="http://www.w3.org/1999/xlink" width="300" zoomAndPan="magnify" viewBox="0 0 224.87999 374.999991" height="500" preserveAspectRatio="xMidYMid meet" version="1.0"><defs><clipPath id="584d337828"><path d="M 74.003906 127.101562 L 135 127.101562 L 135 247.785156 L 74.003906 247.785156 Z M 74.003906 127.101562 " clip-rule="nonzero"/></clipPath></defs><g clip-path="url(#584d337828)"><path fill="#00bf63" d="M 104.203125 138.082031 C 98.136719 138.082031 93.222656 142.996094 93.222656 149.0625 L 93.222656 198.476562 C 93.222656 198.652344 93.226562 198.828125 93.234375 199.003906 C 93.3125 200.65625 92.640625 202.253906 91.40625 203.355469 C 87.457031 206.882812 84.984375 211.996094 84.984375 217.695312 C 84.984375 228.304688 93.589844 236.910156 104.203125 236.910156 C 114.816406 236.910156 123.417969 228.304688 123.417969 217.695312 C 123.417969 211.996094 120.945312 206.882812 117 203.355469 C 115.765625 202.253906 115.09375 200.65625 115.171875 199.003906 C 115.179688 198.828125 115.183594 198.652344 115.183594 198.476562 L 115.183594 149.0625 C 115.183594 142.996094 110.265625 138.082031 104.203125 138.082031 Z M 82.242188 149.0625 C 82.242188 136.933594 92.074219 127.101562 104.203125 127.101562 C 116.332031 127.101562 126.164062 136.933594 126.164062 149.0625 L 126.164062 196.96875 C 131.265625 202.371094 134.398438 209.667969 134.398438 217.695312 C 134.398438 234.371094 120.878906 247.890625 104.203125 247.890625 C 87.523438 247.890625 74.003906 234.371094 74.003906 217.695312 C 74.003906 209.667969 77.140625 202.371094 82.242188 196.96875 Z M 82.242188 149.0625 " fill-opacity="1" fill-rule="evenodd"/></g><path fill="#00bf63" d="M 104.203125 212.203125 C 101.171875 212.203125 98.710938 214.660156 98.710938 217.695312 C 98.710938 220.726562 101.171875 223.183594 104.203125 223.183594 C 107.234375 223.183594 109.691406 220.726562 109.691406 217.695312 C 109.691406 214.660156 107.234375 212.203125 104.203125 212.203125 Z M 87.730469 217.695312 C 87.730469 208.597656 95.105469 201.222656 104.203125 201.222656 C 113.300781 201.222656 120.675781 208.597656 120.675781 217.695312 C 120.675781 226.789062 113.300781 234.164062 104.203125 234.164062 C 95.105469 234.164062 87.730469 226.789062 87.730469 217.695312 Z M 87.730469 217.695312 " fill-opacity="1" fill-rule="evenodd"/><path fill="#00bf63" d="M 134.398438 187.496094 L 150.871094 187.496094 L 150.871094 198.476562 L 134.398438 198.476562 Z M 134.398438 187.496094 " fill-opacity="1" fill-rule="evenodd"/><path fill="#00bf63" d="M 134.398438 160.042969 L 150.871094 160.042969 L 150.871094 171.023438 L 134.398438 171.023438 Z M 134.398438 160.042969 " fill-opacity="1" fill-rule="evenodd"/><path fill="#00bf63" d="M 134.398438 173.769531 L 142.636719 173.769531 L 142.636719 184.75 L 134.398438 184.75 Z M 134.398438 173.769531 " fill-opacity="1" fill-rule="evenodd"/><path fill="#00bf63" d="M 134.398438 146.316406 L 142.636719 146.316406 L 142.636719 157.296875 L 134.398438 157.296875 Z M 134.398438 146.316406 " fill-opacity="1" fill-rule="evenodd"/></svg>