<svg xmlns="http://www.w3.org/2000/svg" xmlns:xlink="http://www.w3.org/1999/xlink" width="300" zoomAndPan="magnify" viewBox="0 0 224.87999 374.999991" height="500" preserveAspectRatio="xMidYMid meet" version="1.0"><defs><clipPath id="3d42265b5e"><path d="M 74.144531 127.320312 L 135 127.320312 L 135 248 L 74.144531 248 Z M 74.144531 127.320312 " clip-rule="nonzero"/></clipPath><clipPath id="0e165497a2"><path d="M 134 187 L 150.601562 187 L 150.601562 199 L 134 199 Z M 134 187 " clip-rule="nonzero"/></clipPath><clipPath id="a444ed7039"><path d="M 134 160 L 150.601562 160 L 150.601562 172 L 134 172 Z M 134 160 " clip-rule="nonzero"/></clipPath></defs><g clip-path="url(#3d42265b5e)"><path fill="#e5250b" d="M 104.230469 138.261719 C 98.1875 138.261719 93.289062 143.160156 93.289062 149.203125 L 93.289062 198.441406 C 93.289062 198.617188 93.292969 198.792969 93.300781 198.964844 C 93.378906 200.609375 92.710938 202.203125 91.484375 203.300781 C 87.546875 206.816406 85.085938 211.910156 85.085938 217.585938 C 85.085938 228.160156 93.65625 236.734375 104.230469 236.734375 C 114.804688 236.734375 123.378906 228.160156 123.378906 217.585938 C 123.378906 211.910156 120.914062 206.816406 116.980469 203.300781 C 115.753906 202.203125 115.082031 200.609375 115.160156 198.964844 C 115.167969 198.792969 115.171875 198.617188 115.171875 198.441406 L 115.171875 149.203125 C 115.171875 143.160156 110.273438 138.261719 104.230469 138.261719 Z M 82.347656 149.203125 C 82.347656 137.117188 92.144531 127.320312 104.230469 127.320312 C 116.316406 127.320312 126.113281 137.117188 126.113281 149.203125 L 126.113281 196.9375 C 131.195312 202.320312 134.320312 209.589844 134.320312 217.585938 C 134.320312 234.203125 120.847656 247.675781 104.230469 247.675781 C 87.613281 247.675781 74.144531 234.203125 74.144531 217.585938 C 74.144531 209.589844 77.269531 202.320312 82.347656 196.9375 Z M 82.347656 149.203125 " fill-opacity="1" fill-rule="evenodd"/></g><path fill="#e5250b" d="M 104.230469 212.117188 C 101.210938 212.117188 98.761719 214.566406 98.761719 217.585938 C 98.761719 220.609375 101.210938 223.058594 104.230469 223.058594 C 107.253906 223.058594 109.703125 220.609375 109.703125 217.585938 C 109.703125 214.566406 107.253906 212.117188 104.230469 212.117188 Z M 87.820312 217.585938 C 87.820312 208.523438 95.167969 201.175781 104.230469 201.175781 C 113.296875 201.175781 120.644531 208.523438 120.644531 217.585938 C 120.644531 226.652344 113.296875 234 104.230469 234 C 95.167969 234 87.820312 226.652344 87.820312 217.585938 Z M 87.820312 217.585938 " fill-opacity="1" fill-rule="evenodd"/><g clip-path="url(#0e165497a2)"><path fill="#e5250b" d="M 134.320312 187.5 L 150.730469 187.5 L 150.730469 198.441406 L 134.320312 198.441406 Z M 134.320312 187.5 " fill-opacity="1" fill-rule="evenodd"/></g><g clip-path="url(#a444ed7039)"><path fill="#e5250b" d="M 134.320312 160.144531 L 150.730469 160.144531 L 150.730469 171.085938 L 134.320312 171.085938 Z M 134.320312 160.144531 " fill-opacity="1" fill-rule="evenodd"/></g><path fill="#e5250b" d="M 134.320312 173.820312 L 142.527344 173.820312 L 142.527344 184.761719 L 134.320312 184.761719 Z M 134.320312 173.820312 " fill-opacity="1" fill-rule="evenodd"/><path fill="#e5250b" d="M 134.320312 146.46875 L 142.527344 146.46875 L 142.527344 157.410156 L 134.320312 157.410156 Z M 134.320312 146.46875 " fill-opacity="1" fill-rule="evenodd"/><path fill="#e5250b" d="M 98.761719 151.941406 L 109.703125 151.941406 L 109.703125 206.644531 L 98.761719 206.644531 Z M 98.761719 151.941406 " fill-opacity="1" fill-rule="evenodd"/></svg>