<svg xmlns="http://www.w3.org/2000/svg" xmlns:xlink="http://www.w3.org/1999/xlink" width="102" zoomAndPan="magnify" viewBox="0 0 76.5 120.750001" height="161" preserveAspectRatio="xMidYMid meet" version="1.0"><defs><clipPath id="150c3a45fd"><path d="M 9.117188 14.859375 L 55 14.859375 L 55 105.765625 L 9.117188 105.765625 Z M 9.117188 14.859375 " clip-rule="nonzero"/></clipPath></defs><g clip-path="url(#150c3a45fd)"><path fill="#00bf63" d="M 31.808594 23.117188 C 27.25 23.117188 23.558594 26.8125 23.558594 31.371094 L 23.558594 68.5 C 23.558594 68.632812 23.558594 68.765625 23.566406 68.898438 C 23.625 70.136719 23.121094 71.339844 22.191406 72.167969 C 19.226562 74.816406 17.367188 78.660156 17.367188 82.941406 C 17.367188 90.914062 23.832031 97.378906 31.808594 97.378906 C 39.78125 97.378906 46.246094 90.914062 46.246094 82.941406 C 46.246094 78.660156 44.390625 74.816406 41.421875 72.167969 C 40.496094 71.339844 39.992188 70.136719 40.050781 68.898438 C 40.054688 68.765625 40.058594 68.632812 40.058594 68.5 L 40.058594 31.371094 C 40.058594 26.8125 36.367188 23.117188 31.808594 23.117188 Z M 15.304688 31.371094 C 15.304688 22.253906 22.695312 14.867188 31.808594 14.867188 C 40.921875 14.867188 48.3125 22.253906 48.3125 31.371094 L 48.3125 67.367188 C 52.144531 71.425781 54.5 76.910156 54.5 82.941406 C 54.5 95.472656 44.339844 105.632812 31.808594 105.632812 C 19.277344 105.632812 9.117188 95.472656 9.117188 82.941406 C 9.117188 76.910156 11.472656 71.425781 15.304688 67.367188 Z M 15.304688 31.371094 " fill-opacity="1" fill-rule="evenodd"/></g><path fill="#00bf63" d="M 31.808594 78.816406 C 29.53125 78.816406 27.683594 80.660156 27.683594 82.941406 C 27.683594 85.21875 29.53125 87.066406 31.808594 87.066406 C 34.085938 87.066406 35.933594 85.21875 35.933594 82.941406 C 35.933594 80.660156 34.085938 78.816406 31.808594 78.816406 Z M 19.429688 82.941406 C 19.429688 76.105469 24.972656 70.5625 31.808594 70.5625 C 38.644531 70.5625 44.183594 76.105469 44.183594 82.941406 C 44.183594 89.777344 38.644531 95.316406 31.808594 95.316406 C 24.972656 95.316406 19.429688 89.777344 19.429688 82.941406 Z M 19.429688 82.941406 " fill-opacity="1" fill-rule="evenodd"/><path fill="#00bf63" d="M 54.5 60.25 L 66.875 60.25 L 66.875 68.5 L 54.5 68.5 Z M 54.5 60.25 " fill-opacity="1" fill-rule="evenodd"/><path fill="#00bf63" d="M 54.5 39.621094 L 66.875 39.621094 L 66.875 47.871094 L 54.5 47.871094 Z M 54.5 39.621094 " fill-opacity="1" fill-rule="evenodd"/><path fill="#00bf63" d="M 54.5 49.933594 L 60.6875 49.933594 L 60.6875 58.1875 L 54.5 58.1875 Z M 54.5 49.933594 " fill-opacity="1" fill-rule="evenodd"/><path fill="#00bf63" d="M 54.5 29.308594 L 60.6875 29.308594 L 60.6875 37.558594 L 54.5 37.558594 Z M 54.5 29.308594 " fill-opacity="1" fill-rule="evenodd"/></svg>