<svg xmlns="http://www.w3.org/2000/svg" xmlns:xlink="http://www.w3.org/1999/xlink" width="102" zoomAndPan="magnify" viewBox="0 0 76.5 120.750001" height="161" preserveAspectRatio="xMidYMid meet" version="1.0"><defs><clipPath id="5b9cea7f93"><path d="M 9.398438 15.304688 L 55 15.304688 L 55 106.210938 L 9.398438 106.210938 Z M 9.398438 15.304688 " clip-rule="nonzero"/></clipPath><clipPath id="cb24dca7ca"><path d="M 54 60 L 67.519531 60 L 67.519531 70 L 54 70 Z M 54 60 " clip-rule="nonzero"/></clipPath><clipPath id="b8533cf395"><path d="M 54 40 L 67.519531 40 L 67.519531 49 L 54 49 Z M 54 40 " clip-rule="nonzero"/></clipPath></defs><g clip-path="url(#5b9cea7f93)"><path fill="#ffde59" d="M 32.117188 23.570312 C 27.554688 23.570312 23.855469 27.269531 23.855469 31.832031 L 23.855469 69.007812 C 23.855469 69.140625 23.859375 69.273438 23.867188 69.402344 C 23.925781 70.644531 23.417969 71.847656 22.492188 72.675781 C 19.519531 75.332031 17.660156 79.175781 17.660156 83.464844 C 17.660156 91.449219 24.132812 97.921875 32.117188 97.921875 C 40.101562 97.921875 46.574219 91.449219 46.574219 83.464844 C 46.574219 79.175781 44.714844 75.332031 41.746094 72.675781 C 40.816406 71.847656 40.3125 70.644531 40.371094 69.402344 C 40.375 69.273438 40.378906 69.140625 40.378906 69.007812 L 40.378906 31.832031 C 40.378906 27.269531 36.679688 23.570312 32.117188 23.570312 Z M 15.59375 31.832031 C 15.59375 22.707031 22.992188 15.308594 32.117188 15.308594 C 41.242188 15.308594 48.640625 22.707031 48.640625 31.832031 L 48.640625 67.871094 C 52.476562 71.9375 54.835938 77.425781 54.835938 83.464844 C 54.835938 96.011719 44.664062 106.183594 32.117188 106.183594 C 19.570312 106.183594 9.398438 96.011719 9.398438 83.464844 C 9.398438 77.425781 11.757812 71.9375 15.59375 67.871094 Z M 15.59375 31.832031 " fill-opacity="1" fill-rule="evenodd"/></g><path fill="#ffde59" d="M 32.117188 79.332031 C 29.835938 79.332031 27.988281 81.183594 27.988281 83.464844 C 27.988281 85.746094 29.835938 87.59375 32.117188 87.59375 C 34.398438 87.59375 36.25 85.746094 36.25 83.464844 C 36.25 81.183594 34.398438 79.332031 32.117188 79.332031 Z M 19.726562 83.464844 C 19.726562 76.621094 25.273438 71.070312 32.117188 71.070312 C 38.960938 71.070312 44.507812 76.621094 44.507812 83.464844 C 44.507812 90.308594 38.960938 95.855469 32.117188 95.855469 C 25.273438 95.855469 19.726562 90.308594 19.726562 83.464844 Z M 19.726562 83.464844 " fill-opacity="1" fill-rule="evenodd"/><g clip-path="url(#cb24dca7ca)"><path fill="#ffde59" d="M 54.835938 60.746094 L 67.226562 60.746094 L 67.226562 69.007812 L 54.835938 69.007812 Z M 54.835938 60.746094 " fill-opacity="1" fill-rule="evenodd"/></g><g clip-path="url(#b8533cf395)"><path fill="#ffde59" d="M 54.835938 40.09375 L 67.226562 40.09375 L 67.226562 48.351562 L 54.835938 48.351562 Z M 54.835938 40.09375 " fill-opacity="1" fill-rule="evenodd"/></g><path fill="#ffde59" d="M 54.835938 50.417969 L 61.03125 50.417969 L 61.03125 58.679688 L 54.835938 58.679688 Z M 54.835938 50.417969 " fill-opacity="1" fill-rule="evenodd"/><path fill="#ffde59" d="M 54.835938 29.765625 L 61.03125 29.765625 L 61.03125 38.027344 L 54.835938 38.027344 Z M 54.835938 29.765625 " fill-opacity="1" fill-rule="evenodd"/><path fill="#ffde59" d="M 27.988281 60.746094 L 36.25 60.746094 L 36.25 75.203125 L 27.988281 75.203125 Z M 27.988281 60.746094 " fill-opacity="1" fill-rule="evenodd"/></svg>