<svg xmlns="http://www.w3.org/2000/svg" xmlns:xlink="http://www.w3.org/1999/xlink" width="300" zoomAndPan="magnify" viewBox="0 0 224.87999 374.999991" height="500" preserveAspectRatio="xMidYMid meet" version="1.0"><defs><clipPath id="5f2205d14a"><path d="M 74.089844 127.234375 L 135 127.234375 L 135 247.917969 L 74.089844 247.917969 Z M 74.089844 127.234375 " clip-rule="nonzero"/></clipPath><clipPath id="55bed058dc"><path d="M 134 187 L 150.546875 187 L 150.546875 199 L 134 199 Z M 134 187 " clip-rule="nonzero"/></clipPath><clipPath id="820fc20a18"><path d="M 134 160 L 150.546875 160 L 150.546875 172 L 134 172 Z M 134 160 " clip-rule="nonzero"/></clipPath></defs><g clip-path="url(#5f2205d14a)"><path fill="#ffde59" d="M 104.21875 138.195312 C 98.167969 138.195312 93.261719 143.101562 93.261719 149.152344 L 93.261719 198.457031 C 93.261719 198.632812 93.265625 198.808594 93.273438 198.980469 C 93.351562 200.628906 92.683594 202.226562 91.453125 203.324219 C 87.511719 206.84375 85.042969 211.945312 85.042969 217.628906 C 85.042969 228.21875 93.628906 236.804688 104.21875 236.804688 C 114.808594 236.804688 123.390625 228.21875 123.390625 217.628906 C 123.390625 211.945312 120.925781 206.84375 116.984375 203.324219 C 115.753906 202.226562 115.085938 200.628906 115.160156 198.980469 C 115.167969 198.808594 115.175781 198.632812 115.175781 198.457031 L 115.175781 149.152344 C 115.175781 143.101562 110.269531 138.195312 104.21875 138.195312 Z M 82.304688 149.152344 C 82.304688 137.050781 92.117188 127.242188 104.21875 127.242188 C 116.320312 127.242188 126.128906 137.050781 126.128906 149.152344 L 126.128906 196.949219 C 131.21875 202.339844 134.347656 209.625 134.347656 217.628906 C 134.347656 234.269531 120.859375 247.757812 104.21875 247.757812 C 87.578125 247.757812 74.089844 234.269531 74.089844 217.628906 C 74.089844 209.625 77.21875 202.339844 82.304688 196.949219 Z M 82.304688 149.152344 " fill-opacity="1" fill-rule="evenodd"/></g><path fill="#ffde59" d="M 104.21875 212.152344 C 101.191406 212.152344 98.738281 214.605469 98.738281 217.628906 C 98.738281 220.65625 101.191406 223.109375 104.21875 223.109375 C 107.242188 223.109375 109.695312 220.65625 109.695312 217.628906 C 109.695312 214.605469 107.242188 212.152344 104.21875 212.152344 Z M 87.785156 217.628906 C 87.785156 208.554688 95.140625 201.195312 104.21875 201.195312 C 113.292969 201.195312 120.652344 208.554688 120.652344 217.628906 C 120.652344 226.707031 113.292969 234.0625 104.21875 234.0625 C 95.140625 234.0625 87.785156 226.707031 87.785156 217.628906 Z M 87.785156 217.628906 " fill-opacity="1" fill-rule="evenodd"/><g clip-path="url(#55bed058dc)"><path fill="#ffde59" d="M 134.347656 187.5 L 150.78125 187.5 L 150.78125 198.457031 L 134.347656 198.457031 Z M 134.347656 187.5 " fill-opacity="1" fill-rule="evenodd"/></g><g clip-path="url(#820fc20a18)"><path fill="#ffde59" d="M 134.347656 160.109375 L 150.78125 160.109375 L 150.78125 171.066406 L 134.347656 171.066406 Z M 134.347656 160.109375 " fill-opacity="1" fill-rule="evenodd"/></g><path fill="#ffde59" d="M 134.347656 173.804688 L 142.566406 173.804688 L 142.566406 184.761719 L 134.347656 184.761719 Z M 134.347656 173.804688 " fill-opacity="1" fill-rule="evenodd"/><path fill="#ffde59" d="M 134.347656 146.414062 L 142.566406 146.414062 L 142.566406 157.371094 L 134.347656 157.371094 Z M 134.347656 146.414062 " fill-opacity="1" fill-rule="evenodd"/><path fill="#ffde59" d="M 98.738281 187.5 L 109.695312 187.5 L 109.695312 206.671875 L 98.738281 206.671875 Z M 98.738281 187.5 " fill-opacity="1" fill-rule="evenodd"/></svg>