<svg xmlns="http://www.w3.org/2000/svg" xmlns:xlink="http://www.w3.org/1999/xlink" width="102" zoomAndPan="magnify" viewBox="0 0 76.5 120.750001" height="161" preserveAspectRatio="xMidYMid meet" version="1.0"><defs><clipPath id="e6410e60fc"><path d="M 9.074219 14.796875 L 55 14.796875 L 55 105.703125 L 9.074219 105.703125 Z M 9.074219 14.796875 " clip-rule="nonzero"/></clipPath></defs><g clip-path="url(#e6410e60fc)"><path fill="#e5250b" d="M 31.800781 23.066406 C 27.234375 23.066406 23.535156 26.765625 23.535156 31.328125 L 23.535156 68.511719 C 23.535156 68.644531 23.539062 68.777344 23.546875 68.910156 C 23.605469 70.152344 23.097656 71.355469 22.171875 72.183594 C 19.199219 74.835938 17.339844 78.683594 17.339844 82.972656 C 17.339844 90.957031 23.8125 97.433594 31.800781 97.433594 C 39.785156 97.433594 46.257812 90.957031 46.257812 82.972656 C 46.257812 78.683594 44.398438 74.835938 41.425781 72.183594 C 40.5 71.355469 39.996094 70.152344 40.054688 68.910156 C 40.058594 68.777344 40.0625 68.644531 40.0625 68.511719 L 40.0625 31.328125 C 40.0625 26.765625 36.363281 23.066406 31.800781 23.066406 Z M 15.273438 31.328125 C 15.273438 22.203125 22.671875 14.800781 31.800781 14.800781 C 40.925781 14.800781 48.324219 22.203125 48.324219 31.328125 L 48.324219 67.375 C 52.164062 71.441406 54.523438 76.933594 54.523438 82.972656 C 54.523438 95.523438 44.347656 105.695312 31.800781 105.695312 C 19.25 105.695312 9.074219 95.523438 9.074219 82.972656 C 9.074219 76.933594 11.433594 71.441406 15.273438 67.375 Z M 15.273438 31.328125 " fill-opacity="1" fill-rule="evenodd"/></g><path fill="#e5250b" d="M 31.800781 78.839844 C 29.515625 78.839844 27.667969 80.691406 27.667969 82.972656 C 27.667969 85.253906 29.515625 87.105469 31.800781 87.105469 C 34.082031 87.105469 35.929688 85.253906 35.929688 82.972656 C 35.929688 80.691406 34.082031 78.839844 31.800781 78.839844 Z M 19.40625 82.972656 C 19.40625 76.125 24.953125 70.578125 31.800781 70.578125 C 38.644531 70.578125 44.195312 76.125 44.195312 82.972656 C 44.195312 89.816406 38.644531 95.367188 31.800781 95.367188 C 24.953125 95.367188 19.40625 89.816406 19.40625 82.972656 Z M 19.40625 82.972656 " fill-opacity="1" fill-rule="evenodd"/><path fill="#e5250b" d="M 54.523438 60.25 L 66.917969 60.25 L 66.917969 68.511719 L 54.523438 68.511719 Z M 54.523438 60.25 " fill-opacity="1" fill-rule="evenodd"/><path fill="#e5250b" d="M 54.523438 39.589844 L 66.917969 39.589844 L 66.917969 47.855469 L 54.523438 47.855469 Z M 54.523438 39.589844 " fill-opacity="1" fill-rule="evenodd"/><path fill="#e5250b" d="M 54.523438 49.921875 L 60.71875 49.921875 L 60.71875 58.183594 L 54.523438 58.183594 Z M 54.523438 49.921875 " fill-opacity="1" fill-rule="evenodd"/><path fill="#e5250b" d="M 54.523438 29.261719 L 60.71875 29.261719 L 60.71875 37.527344 L 54.523438 37.527344 Z M 54.523438 29.261719 " fill-opacity="1" fill-rule="evenodd"/><path fill="#e5250b" d="M 27.667969 33.394531 L 35.929688 33.394531 L 35.929688 74.710938 L 27.667969 74.710938 Z M 27.667969 33.394531 " fill-opacity="1" fill-rule="evenodd"/></svg>